
<svg xmlns="http://www.w3.org/2000/svg" width="214.257" height="210.5" viewBox="0 0 214.257 210.5">
  <g id="Groupe_2030" data-name="Groupe 2030" transform="translate(-227.942 -1769.657)">
    <path id="Tracé_1349" data-name="Tracé 1349" d="M473.5,1901.018c-28.652,6.612-41.876,23.142-59.508,27.55s-32.509,6.612-32.509,6.612l-6.612,62.814s14.877-2.2,32.509-6.612,30.856-20.938,59.508-27.551l-22.04-22.04Z" transform="translate(-86.064 -76.947)" fill="#eda008"/>
    <path id="Tracé_1350" data-name="Tracé 1350" d="M465.648,2019.226s-4.538-9.153-4.538-17.225c0-3.205,2.032-6.116,4.538-6.5s4.533,1.9,4.533,5.11C470.181,2008.684,465.648,2019.226,465.648,2019.226Z" transform="translate(-136.581 -132.267)" fill="#f9f3e4"/>
    <path id="Tracé_1351" data-name="Tracé 1351" d="M443.609,2044.5s-4.651-11.379-14.072-16.257c-4.151-2.145-2.714-7.326.5-8.8,4.084-1.87,6.8.114,8.555,2.77C443.008,2028.9,443.609,2044.5,443.609,2044.5Z" transform="translate(-116.588 -145.886)" fill="#f9f3e4"/>
    <path id="Tracé_1352" data-name="Tracé 1352" d="M477.005,2038.027s4.647-12.8,14.07-20.569c4.151-3.417,2.715-8.158-.5-8.65-4.084-.619-6.8,2.2-8.555,5.392C477.6,2022.24,477.005,2038.027,477.005,2038.027Z" transform="translate(-145.892 -140.035)" fill="#f9f3e4"/>
    <g id="Groupe_1982" data-name="Groupe 1982" transform="translate(227.942 1769.657)">
      <path id="Tracé_1353" data-name="Tracé 1353" d="M331.533,2180.743l-15.917,17.369-5.13-4.7a10.917,10.917,0,0,1-3.146-4.77,9.487,9.487,0,0,1-.094-5.441,12.528,12.528,0,0,1,2.979-5.215l.8-.871a12.474,12.474,0,0,1,4.963-3.44,9.375,9.375,0,0,1,5.449-.318,11.425,11.425,0,0,1,5.1,2.807Zm-16.705,12.17,11.479-12.526-1.968-1.8a6.148,6.148,0,0,0-5.006-1.854,8.775,8.775,0,0,0-5.2,3.079l-.886.966a9.006,9.006,0,0,0-2.729,5.445,5.91,5.91,0,0,0,2.2,4.76Z" transform="translate(-274.189 -2005.975)" fill="#1a1818"/>
      <path id="Tracé_1354" data-name="Tracé 1354" d="M264.587,2117.089l4.767,8.42,6.308-3.572-5.573-9.842,2.844-1.611,7.59,13.405-20.5,11.609-7.535-13.306,2.872-1.626,5.518,9.744,5.66-3.206-4.768-8.419Z" transform="translate(-242.32 -1969.301)" fill="#1a1818"/>
      <path id="Tracé_1355" data-name="Tracé 1355" d="M249.7,2056.69a2.846,2.846,0,0,0-2.118,1.563,13.163,13.163,0,0,0-.849,4.206,18.978,18.978,0,0,1-.933,4.827,6.048,6.048,0,0,1-4.5,4.24,5.74,5.74,0,0,1-5.071-1.3,9.4,9.4,0,0,1-3.05-5.517,10.19,10.19,0,0,1-.018-4.478,7.2,7.2,0,0,1,1.9-3.493,6.618,6.618,0,0,1,3.407-1.843l.842,3.99a3.69,3.69,0,0,0-2.587,1.728,4.776,4.776,0,0,0-.338,3.453,4.982,4.982,0,0,0,1.482,2.871,2.853,2.853,0,0,0,2.572.59,2.579,2.579,0,0,0,1.866-1.617,13.782,13.782,0,0,0,.832-4.21,18.153,18.153,0,0,1,.909-4.706,7.029,7.029,0,0,1,1.839-2.885,6.23,6.23,0,0,1,2.935-1.413,5.605,5.605,0,0,1,5.05,1.241,9.79,9.79,0,0,1,2.966,5.634,11.505,11.505,0,0,1,.044,4.794,7.885,7.885,0,0,1-1.869,3.8,6.511,6.511,0,0,1-3.554,1.966l-.845-4.006a3.812,3.812,0,0,0,2.766-1.94,5.812,5.812,0,0,0,.292-3.948,5.05,5.05,0,0,0-1.51-2.964A2.792,2.792,0,0,0,249.7,2056.69Z" transform="translate(-230.862 -1935.36)" fill="#1a1818"/>
      <path id="Tracé_1356" data-name="Tracé 1356" d="M233.154,1979.6l-.758,7.307,20.15,2.091-.419,4.04-20.151-2.091-.751,7.243-3.283-.341,1.928-18.59Z" transform="translate(-227.942 -1892.433)" fill="#1a1818"/>
      <path id="Tracé_1357" data-name="Tracé 1357" d="M267.046,1941.483l-1.43,3.818-22.062-8.266,1.431-3.818Z" transform="translate(-237.086 -1865.465)" fill="#1a1818"/>
      <path id="Tracé_1358" data-name="Tracé 1358" d="M295.468,1871.589l-2.418,3.3-19.69-1.4,13.488,9.872-2.418,3.3-19.012-13.915,2.418-3.3,19.762,1.41-13.54-9.91,2.4-3.278Z" transform="translate(-249.894 -1821.214)" fill="#1a1818"/>
      <path id="Tracé_1359" data-name="Tracé 1359" d="M354.3,1825.22l-7.549,5.127,1.5,5.61-3.521,2.391-5.874-24.49,3.038-2.064,20.612,14.481-3.534,2.4Zm-8.454,1.751,5.649-3.837-8.316-6.167Z" transform="translate(-292.913 -1794.34)" fill="#1a1818"/>
      <path id="Tracé_1360" data-name="Tracé 1360" d="M410.49,1777.259l-7.035,2.116,5.836,19.4-3.889,1.171-5.837-19.4-6.973,2.1-.951-3.161,17.9-5.385Z" transform="translate(-323.832 -1772.259)" fill="#1a1818"/>
      <path id="Tracé_1361" data-name="Tracé 1361" d="M477.96,1793.2l-4.075.156-.9-23.542,4.075-.156Z" transform="translate(-371.479 -1769.657)" fill="#1a1818"/>
      <path id="Tracé_1362" data-name="Tracé 1362" d="M535.647,1789.885a14.459,14.459,0,0,1-2.549,5.644,9.053,9.053,0,0,1-4.246,3.128,10.039,10.039,0,0,1-9.958-2.327,9.187,9.187,0,0,1-2.464-4.672,13.994,13.994,0,0,1,.153-6.1l.3-1.292a14.321,14.321,0,0,1,2.574-5.646,9.176,9.176,0,0,1,4.275-3.146,10.06,10.06,0,0,1,9.946,2.308,9.064,9.064,0,0,1,2.442,4.659,14.294,14.294,0,0,1-.178,6.165Zm-3.707-2.129a10.3,10.3,0,0,0-.075-6.182,5.224,5.224,0,0,0-8.129-1.908,10.1,10.1,0,0,0-2.828,5.379l-.309,1.324a10.223,10.223,0,0,0,.107,6.19,4.87,4.87,0,0,0,3.606,3.019,4.814,4.814,0,0,0,4.545-1.064,10.442,10.442,0,0,0,2.8-5.56Z" transform="translate(-396.772 -1772.782)" fill="#1a1818"/>
      <path id="Tracé_1363" data-name="Tracé 1363" d="M595.252,1829.412l-3.425-2.242.37-19.737-9.156,13.984-3.425-2.242,12.9-19.711,3.425,2.243-.379,19.809,9.191-14.039,3.4,2.225Z" transform="translate(-433.94 -1787.117)" fill="#1a1818"/>
      <path id="Tracé_1364" data-name="Tracé 1364" d="M673.885,1922.606a7.824,7.824,0,0,1-3.845-2.037,14.467,14.467,0,0,1-3.072-4.216,10.142,10.142,0,0,1-1.148-5.289,8.944,8.944,0,0,1,1.859-4.868,13.439,13.439,0,0,1,4.639-3.764l1.649-.826q4.774-2.393,8.6-1.452a8.866,8.866,0,0,1,5.88,5.035,9.384,9.384,0,0,1,1.056,6.457,8.406,8.406,0,0,1-3.765,5l-1.8-3.588q3.5-2.514,1.593-6.319a4.838,4.838,0,0,0-3.645-2.852,10.1,10.1,0,0,0-5.859,1.28l-1.618.812a9.579,9.579,0,0,0-4.576,4.094,5.311,5.311,0,0,0,.119,4.945q1.407,2.806,3.274,3.354l4.123-2.066-2.175-4.34,2.777-1.392,4,7.985Z" transform="translate(-484.422 -1845.942)" fill="#1a1818"/>
      <path id="Tracé_1365" data-name="Tracé 1365" d="M695.947,1985.85l-.6-4.524-8.983,1.192-.538-4.058,23.355-3.1,1.09,8.213a9.637,9.637,0,0,1-.986,6.481,6.477,6.477,0,0,1-4.958,2.894,6.63,6.63,0,0,1-4.075-.61,7.259,7.259,0,0,1-2.85-2.829l-9.029,6.536-.208.028-.577-4.347Zm2.672-4.958.553,4.171a4.68,4.68,0,0,0,1.461,3.071,3.641,3.641,0,0,0,2.985.779,3.878,3.878,0,0,0,2.762-1.452,4.573,4.573,0,0,0,.636-3.325l-.568-4.282Z" transform="translate(-496.154 -1890.151)" fill="#1a1818"/>
      <path id="Tracé_1366" data-name="Tracé 1366" d="M687.9,2058.506l1.758-8.955-5.015-2.93.82-4.176,21.4,13.271-.708,3.6-24.836,4.211.822-4.191Zm4.776-7.192-1.316,6.7,10.248-1.468Z" transform="translate(-493.518 -1929.446)" fill="#1a1818"/>
      <path id="Tracé_1367" data-name="Tracé 1367" d="M649.955,2129.074l2.1-3.512,19.735-.422-14.34-8.587,2.1-3.513,20.213,12.1-2.1,3.513-19.807.416,14.4,8.621-2.087,3.484Z" transform="translate(-475.142 -1970.798)" fill="#1a1818"/>
      <path id="Tracé_1368" data-name="Tracé 1368" d="M617.8,2171.618l15.087,18.094-6.2,5.171a9.862,9.862,0,0,1-5.7,2.666,5.645,5.645,0,0,1-4.66-2.33,5.087,5.087,0,0,1-1.194-2.8,5.626,5.626,0,0,1,.679-3.178,5.2,5.2,0,0,1-3.517.394,5.68,5.68,0,0,1-3-1.973,6.272,6.272,0,0,1-1.63-5.277,9.252,9.252,0,0,1,3.539-5.269Zm3.664,10.786-4.715-5.655-3.492,2.912a4.4,4.4,0,0,0-1.7,2.66,3.35,3.35,0,0,0,.866,2.732q2.353,2.821,5.288.479Zm1.927,2.312-3.082,2.569a4.645,4.645,0,0,0-1.739,2.577,2.966,2.966,0,0,0,.744,2.572,3,3,0,0,0,2.381,1.3,5.022,5.022,0,0,0,2.877-1.387l3.057-2.549Z" transform="translate(-450.313 -2005.111)" fill="#1a1818"/>
      <path id="Tracé_1369" data-name="Tracé 1369" d="M566.011,2226.475l-.819,12.384-4.2,1.706,1.712-16.764-3.265-8.035,3.808-1.548,3.265,8.035,12.935,10.812-4.212,1.712Z" transform="translate(-422.122 -2030.065)" fill="#1a1818"/>
    </g>
  </g>
</svg>
